<svg xmlns="http://www.w3.org/2000/svg" version="1.1" xmlns:xlink="http://www.w3.org/1999/xlink" xmlns:svgjs="http://svgjs.dev/svgjs" viewBox="0 0 800 800"><defs><linearGradient x1="50%" y1="0%" x2="50%" y2="100%" id="ssscribble-grad"><stop stop-color="hsl(89, 73%, 48%)" stop-opacity="1" offset="0%"></stop><stop stop-color="#1db954" stop-opacity="1" offset="100%"></stop></linearGradient></defs><g fill="none" stroke-width="1.5" stroke="url(#ssscribble-grad)" stroke-linecap="round"><path d="M948.21 414.75C692.66 447.61 685.74 493.13 916.82 549.39 1084.27 604.96 974.24 669.2 725.93 737.17 599.76 798.14 705.69 853.29 901.04 892.79 1003.24 911.3 916.59 902.46 724 862.27 539.55 803.71 464.89 728.28 495.49 653.53 597.34 607.15 696.7 599.68 753.9 644.37 775.56 738.2 753 863.51 710.43 988.6 655.17 1077.2 605.71 1101.23 572.85 1047.97 539.99 937.16 525.28 805.56 518.58 695.27 499.17 636.02 461.95 638.96 383.34 693.61 269.19 784.95 115.72 878.65 -36.77 949.61 -118.01 989.43 -90.53 984.78 50.84 942.11 200.36 869.43 248.05 779.86 111.63 687.56 -117.92 593.28 -253.32 510.12 -151.24 440.93 72.97 378.39 164.3 327.65 -15.82 285.65 -259.58 246.35 -259.33 211.01 -3.78 178.15 150.96 145.29 -1.24 116.46 -240.07 93.79 -147.21 69.29 50.12 97.12 -200.46 155.28 -172.54 196.93 13.42 239.32 210.09 268.94 311.76 268.55 280.79 234.25 179.74 160.22 59.53 55.05 -7.32 -68.11 -11.43 -183.54 32.11 -262.29 104.9 -283.94 177.68 -237.39 257.93 -139.79 317.92 -14.85 350.78 95.95 383.64 149.24 387.82 131.88 369.54 55.98 358.73 -56.42 345.72 -163.04 359.11 -232.79 420.17 -253.4 541.15 -216.47 712.01 -135.89 863.7 -26.92 941.85 87.46 883.25 189.09 729.65 272.36 582.64 328.38 588.94 360.53 775.47 371.67 1001.49 370.65 1047.29 366.62 866.83 355.6 659.97 351.14 692.57 357.54 944.09 363.26 1102.96 381.9 948.21 414.75Q948.21 414.75 948.21 414.75" opacity="0.91"></path><path d="M914.21 541.35C671.47 571.86 632.09 611.24 824.11 656.97 1025.97 700.85 1010.27 747.15 804.93 790.3 588.59 836.13 924.47 821.78 885.93 748.13 715.24 687.52 543.29 624.18 435.01 574.19 403.48 557.61 435.99 579.78 490.45 645.96 559.77 747.43 605.5 867.2 621.51 977.72 630.75 1050.88 617.54 1065.85 587.03 1013.97 556.51 912.27 510.14 789.97 443.35 681.46 369.8 612.07 268.56 594.69 146.36 625.41 39.02 695.92 -43.73 780.52 -59.23 857.33 66.09 932.13 241.31 875.16 -21.27 774.92 -189.41 693.79 -190.35 614.36 -9.58 542.68 173.38 472.17 171.71 412.12 -41.92 362.85 -245.72 314.97 -212.52 275.77 30.21 245.25 184.38 214.74 69.62 194.35 -162.7 184.68 -251.78 176.41 -98.28 180.95 131.46 198.58 229.7 217.37 126.6 246.55 -55.64 280.66 -169.82 304.55 -122.47 319.4 37.44 314.44 225.5 280.85 344.24 217.13 370.84 124.33 318.57 15.75 235.58 -96.2 165.33 -189.08 106.49 -242.18 85.97 -242.18 94.1 -184.59 113.31 -87.85 142.7 28.24 173.21 129.95 203.72 181.86 233.92 173.09 272.26 111.72 321.66 12.97 397.7 -89.42 509.42 -168.54 632.55 -212.36 765.79 -207.17 865.09 -158.83 885.52 -77.07 810.59 22.43 662.51 123.04 542.59 219.16 531.41 298.01 677.37 357.31 891.39 400.26 1021.85 427.81 945.98 446.22 738.6 455.95 602.47 465.16 703.32 478.83 947.43 490.64 1068.38 510.84 914.21 541.35Q914.21 541.35 914.21 541.35" opacity="0.09"></path><path d="M880.21 617.41C651.67 645.58 585.01 676.12 732.04 706.88 943.76 735.53 1011.24 760.33 884.49 776.89 668.91 786.05 532.41 781.32 550.47 759.61 692.01 728.94 842.12 683.16 909.87 627.56 870.66 578.52 746.86 537.37 600.42 516.82 462.56 529.12 374.02 575.85 331.81 656.5 324.91 759.48 335.69 869.82 343.37 964.67 357.1 1023.11 352.59 1030.08 324.42 979.97 296.26 887.25 245.76 774.71 178.91 669.9 87.1 576.55 28.66 648.44 144.19 754.7 247.21 824.39 330.58 873.05 332.87 895.73 228.2 896.1 44.7 871.94 -126.16 830.56 -173.54 775.38 -62.31 714.01 132.62 653.38 238.72 589.54 155.21 531.95 -67.37 483.4 -225.27 434.83 -164.32 395.84 64.21 367.67 -2.76 324.52 245.34 355.05 134.69 374.32 -33.94 372.29 -124.75 356.02 -95.39 318.74 33.92 259.16 196.47 177.1 329.79 78.08 414.21 -23.36 436.81 -116.89 422.52 -184.52 380.03 -213.15 340.77 -194.81 320.28 -129.53 299.68 -35.59 303.07 71.22 331.24 163.95 359.4 214.09 411.02 212.83 484.74 165.28 558.34 81.3 648.84 -13 740.15 -95.34 803.25 -155.36 827.03 -176.83 786.03 -159.81 696.11 -109.93 574 -35.39 481.6 50.56 489.16 143.07 613.36 229.29 811.33 303.38 961.3 368.5 966.59 419.62 809.54 459.26 624.99 491.52 572.01 517.96 723.01 542.43 947.32 564.79 1031.96 589.25 880.21 617.41Q880.21 617.41 880.21 617.41" opacity="0.35"></path><path d="M846.21 615.76C633.15 641.58 544.9 663.26 644.62 679.62 843.53 694.36 971.1 700.89 936.55 696.98 768.44 688.75 582.51 667.99 485.19 635.02 513.29 600.56 630.12 559.35 757.64 518.02 847.07 489.96 855.04 476 795.33 484.71 686.94 521.58 567.9 585.94 464.73 673.7 372.15 772.62 307.4 870.48 263.61 949.16 227.56 993.84 199.47 993.92 173.66 945.97 147.84 862.09 125.51 759.67 112.86 660.29 107.96 580.65 125.73 533.05 173.57 520.84 232 543.86 308.52 591.2 377.11 650.18 397.03 716.65 351.99 773.74 228.72 814.34 -6.35 844.44 16.76 793.64 247.34 735.23 262.96 689.18 120.69 644.01 -88.18 603.53 -197.85 562.03 -114.84 527.45 98.21 501.63 245.71 475.81 199.94 459.97 15.2 452.77 -154.55 444.56 -167.31 442.76 -24.66 444.07 173.69 439.97 296.19 432.97 287.73 417.75 168.93 389.51 26.14 346.29 -63.62 285.44 -71.98 211 3.21 123.3 120.61 29.95 256.38 -55.91 368.98 -126.41 446.83 -168.37 499.47 -175.09 526.4 -142.19 542.84 -72.53 551.29 16.87 565.13 114.06 590.95 197.94 616.77 245.92 653.34 251.08 693.59 216.38 725.84 147.66 745.88 64.49 737.98 -15.5 704.88 -84.33 634.8 -125.54 538.83 -135.53 461.22 -117.37 423.09 -72.79 465.29 -10.89 588.9 64.27 762.3 142.54 907.98 216.8 943.34 289.57 843.99 352.85 664.56 405.82 540.82 454.48 568.29 494.92 748.01 528.87 942.71 561.21 993.71 589.95 846.21 615.76Q846.21 615.76 846.21 615.76" opacity="0.42"></path><path d="M812.12 537C615.71 560.47 511.99 575.57 565.64 582.2 812.41 586.22 774.43 544.99 534.86 503.99 445.99 478.65 454.21 453.63 531.29 435.07 645.47 431.9 741.06 444.78 791.92 478.34 799 532.96 761.8 607.06 701.44 694.84 622.74 785.02 547.4 868.29 486.31 930.93 424.69 963.06 381.22 957.39 357.75 911.98 334.27 836.79 331.91 744.72 349.27 652.28 366.09 572.31 398.73 515.58 436.76 486.79 456.44 487.55 454.98 512.23 411.72 552.51 324.7 606.18 195.4 659.7 50.46 705.73 -57.38 746.87 -93.42 773.38 -29 785.08 103.78 787.53 247.42 777.72 313.38 759.28 247.57 735.5 76.36 707.83 -100.53 679.66 -163.24 650.1 -64.28 622.75 132.12 599.28 273.65 575.8 257.45 557.32 108.16 542.61 -69.26 526.52 -148.13 511.49 -86.73 494.59 75.5 472.36 244.29 443.51 339.63 404.88 331.99 357.01 242.16 296.8 126.69 224.9 22.4 148.11 -25.14 66.75 -13.77 -11.35 46.1 -76.07 133.62 -121.8 223.95 -139.76 319.02 -128.18 396.49 -84.81 453.63 -13.89 507.07 69.48 544.63 156.79 568.1 231.98 591.58 277.39 599.87 287.81 590.69 264.74 577.83 211.16 543.06 141.25 488.67 68.27 439.01 -2.29 390.14 -55.34 366.42 -85.52 391.21 -94.64 472.43 -79.69 607.48 -45.76 753.71 3.56 871.39 62.28 903.51 123.79 832.63 189.4 684.9 251.2 539.85 306.22 495.62 360.34 587.81 406.78 774.28 445.15 932.66 482.79 953.67 513.51 812.21 536.99Q812.12 537 812.12 537" opacity="0.22"></path><path d="M779.03 409.14C600.18 430.26 486.5 442.21 497.76 445.62 621.91 449.11 779.74 444.44 885.47 432.97 894.41 423.15 803.3 409.14 660.65 394.22 515.37 386.1 420.42 382.95 391.6 389.27 425.02 409.4 495.6 444.18 572.64 495.09 649.41 559.31 699.33 635.28 720.57 716.89 724.09 794.79 708.3 862.34 683.82 909.62 653.89 930.61 625.91 920.35 604.78 877.87 583.66 811.2 570.39 729.6 560.48 645.36 545.12 567.93 522.48 506.21 482.36 465.21 424.5 447.16 339.79 450.17 230.47 469.49 120.87 504.27 19.96 544.93 -41.13 585.16 -40 627.29 29.89 661.54 153.17 685.69 273.82 705.43 345.99 714.46 321.56 714.02 200.35 709.86 30.49 698.89 -101.8 683.14 -121.21 666.22 -11.81 646.69 167.03 625.57 300.26 604.44 308.38 582.72 197.33 559.81 32 535.72 -88.06 508.26 -104.59 475.81 -15.25 439.64 134.93 395.83 279.01 343.53 372.73 286.83 388.95 222.24 342.46 152.43 252 84.51 158.88 18.8 89.36 -37.97 44.44 -79.29 37.25 -101.25 57.4 -98.69 97.22 -73.19 145.56 -23.5 190.58 45.77 239.22 121.85 276.14 199.17 297.27 265.84 318.39 308.34 322.72 322.89 313.92 310.06 308.74 270.94 298.83 215.42 295.62 153 312.07 86.88 354.05 29.84 431.53 -12.37 533.61 -41.29 657.06 -51.02 775.21 -43.47 849.39 -22.11 858.21 11.37 786.49 52.05 664.41 99.52 533.16 148.32 459.31 194.75 491.32 242.83 623.42 285.93 796.9 322.28 916.1 358.71 912.26 388.01 779.03 409.14Q779.03 409.14 779.03 409.14" opacity="0.50"></path><path d="M744.11 278.16C556.33 312.43 856.38 323.6 781.49 328.53 661.05 339.54 533.74 357.48 430.93 384.9 363.6 422.29 341.21 470.91 352.59 530.16 391.83 595.74 439.33 666.59 481.23 737.22 524.86 800.59 552.8 852.25 563.81 885.39 572.7 896.82 567.32 883.14 548.54 843.95 529.76 785.61 498.48 714.48 454.17 639.43 407.75 567.07 345.65 504.34 269.48 455.88 195.03 423.75 116.62 408.4 48.43 407.72 8.11 421.51 3.55 443.97 46.26 470.49 124.46 502.86 229.5 533.06 330.4 558.09 384.22 582.94 370.41 600.29 278.87 609.55 66.71 617.37 -16.49 596.81 200.11 571.44 324.39 552.66 353.22 529.17 281.44 501.13 143.66 472.43 9.07 438.05 -66.33 397.8 -60 356 24.22 307.73 149.4 253.93 282.14 199.96 381.88 142.8 432.65 85.82 433.95 34.69 396.67 -10.03 341.81 -43.36 273.83 -62.24 216.56 -63.73 177.78 -45.36 147.11 -10.66 135.44 41.37 138.2 106.49 144.96 174.28 159.23 241.61 178 299.95 196.78 339.14 219.18 356.63 247.82 352.44 280.48 326.54 326.3 285.57 389.5 235.96 460.81 179.1 549.01 125.09 645.93 79.06 761.86 26.19 752.45 1.93 600.53 24.37 494.9 49.09 427.5 78.59 434.89 109.7 524.05 143.59 669.3 176.1 814.34 205.06 893.4 234.6 868.43 259.37 744.2 278.15Q744.11 278.16 744.11 278.16" opacity="0.35"></path><path d="M710.2 190.65C454.64 223.51 440.64 245.88 641.46 266.08 818.23 296.72 776.07 343.65 598.62 418.06 401.52 514.41 298.92 634.25 273.07 752.61 293.49 837.23 305.68 863.23 272.81 809.94 239.95 699.13 165.16 567.22 87.79 457.27 56.69 388.32 108.01 366.91 262.04 377.77 400.07 435.22 -21.69 491.17 234.2 455.91 388.95 423.05 246.48 365.24 26.76 288.06 -26.06 211.76 139.83 122.94 343.15 41.18 474.29 -12.73 484.15 -26.18 447.7 18.68 381.66 104.54 355.14 223.13 388 333.94 420.87 387.23 510 374.55 632.98 314.01 726.38 219.75 767.8 134.76 679.74 81.48 519.48 50.14 388.43 54.49 465.35 80.8 709.16 117.55 864.95 157.79 710.2 190.65Q710.2 190.65 710.2 190.65" opacity="0.21"></path><path d="M676.12 177.98C447.62 206.14 376.81 238.94 497.28 279.77 691.95 327.37 785.28 393.23 742.11 478.48 603.32 570.8 452.95 671.89 346.95 760.58 261.56 817 213.5 826.09 185.33 775.98 157.16 683.26 151.56 570.55 188.14 467.71 245.33 387.35 351.74 339.54 453.61 319.64 459.86 323.92 336.66 336.45 121.34 342.99 -19.76 354.15 39.62 348.53 268.12 320.37 419.95 292.2 348.43 244.15 158.97 184.18 12.93 128.82 32.8 72.34 164.9 31.14 340.9 14.12 470.08 32.05 537.37 91.75 570.94 173.94 587.61 275.23 615.78 367.95 643.94 418.09 680.94 420.42 696.2 384.65 677.73 316.61 592.52 245.39 453.44 189.98 358.23 141.65 368.21 119.74 534.86 120.95 744.97 128.93 827.96 149.8 676.21 177.97Q676.12 177.98 676.12 177.98" opacity="0.57"></path><path d="M642.12 244.63C445.72 268.1 340.2 305.07 376.03 354.32 516.85 406.2 657.45 473.3 728.16 550.84 728.18 626.09 666.11 700.62 590.93 758.97 502.22 790.93 438.91 787.38 415.44 741.98 391.96 666.79 410.55 574.59 458.59 484.8 493.1 404.39 518.53 343.08 487.75 302.29 386.27 277.83 220.78 264.63 62.75 254.25 9.71 248.86 105.72 236.79 302.12 213.32 443.65 189.85 432.26 157.2 304.59 121.91 96.53 79.9 197.55 90.1 348.52 171.51 441.65 244.08 500.66 326.76 524.13 401.95 547.62 447.37 533.34 460.45 480.9 445.7 426.86 404.55 350.98 354.91 299.42 310.43 322.9 263.65 437.36 233.18 617.82 221.97 762.72 213.4 783.67 221.15 642.21 244.62Q642.12 244.63 642.12 244.63" opacity="0.58"></path><path d="M608.54 366.77C448.24 385.55 331.46 418.77 300.53 462.91 354.79 506.91 454.19 560.56 548.32 617.59 630.98 668.77 670.27 714.83 674.56 746.06 663.41 758.78 641.55 747.1 622.78 707.93 604 649.59 590.08 578.32 568.68 505.83 531.85 434.96 463.26 373.23 355.98 324.43 237.24 283.88 117.93 253.36 49.9 230.08 67.07 210.16 176.24 191.72 336.54 172.95 460.62 154.17 491.73 136.83 434.37 124.21 316.49 114.95 201.23 116.16 128.52 132.1 94.36 156.29 106.97 198.1 140.96 255.2 189.31 313.93 230.32 377.59 249.1 435.93 265.26 484.75 253.74 464.9 320.86 425.25 418.17 392.84 553.35 368.49 685 357.04 756.12 345.43 732.62 348 608.54 366.77Q608.54 366.77 608.54 366.77" opacity="0.47"></path><path d="M574.12 500.87C345.62 529.04 266.85 593.62 327.46 662.39 457.97 710.68 528.56 724.09 500.39 673.98 472.22 581.25 350.64 468.2 183.21 377.84 85.68 297.62 141.62 241.98 370.12 213.81 521.95 185.64 464.81 190.28 337.88 233.58 206.11 287.04 169.03 377.25 197.2 469.98 225.36 520.09 313.45 529.51 482.13 518.14 645.97 486.29 725.95 472.7 574.12 500.87Q574.12 500.87 574.12 500.87" opacity="0.93"></path><path d="M540.21 598.85C263.58 636.41 267.01 694.8 229.46 639.97 191.9 510.62 127.58 358.72 404.21 321.16 554.6 283.61 408.08 374.62 445.64 503.97 483.19 558.8 690.6 561.3 540.21 598.85Q540.21 598.85 540.21 598.85" opacity="0.13"></path></g></svg>